<svg xmlns="http://www.w3.org/2000/svg" width="980" height="420" viewBox="0 0 980 420">
<style>text { font-family: Arial, sans-serif; fill: #222; } .small { font-size: 12px; } .label { font-size: 12px; } .title { font-size: 20px; font-weight: bold; }</style>
<rect x="0" y="0" width="980" height="420" fill="#ffffff"/>
<text x="490.0" y="30" text-anchor="middle" class="title">Donors vs Leadership Council Members</text>
<line x1="80" y1="330" x2="940" y2="330" stroke="#444" stroke-width="1"/>
<line x1="80" y1="70" x2="80" y2="330" stroke="#444" stroke-width="1"/>
<line x1="76" y1="330.0" x2="940" y2="330.0" stroke="#e9e9e9" stroke-width="1"/>
<text x="70" y="334.0" text-anchor="end" class="small">0</text>
<line x1="76" y1="265.0" x2="940" y2="265.0" stroke="#e9e9e9" stroke-width="1"/>
<text x="70" y="269.0" text-anchor="end" class="small">1942</text>
<line x1="76" y1="200.0" x2="940" y2="200.0" stroke="#e9e9e9" stroke-width="1"/>
<text x="70" y="204.0" text-anchor="end" class="small">3885</text>
<line x1="76" y1="135.0" x2="940" y2="135.0" stroke="#e9e9e9" stroke-width="1"/>
<text x="70" y="139.0" text-anchor="end" class="small">5828</text>
<line x1="76" y1="70.0" x2="940" y2="70.0" stroke="#e9e9e9" stroke-width="1"/>
<text x="70" y="74.0" text-anchor="end" class="small">7770</text>
<rect x="80" y="70.0" width="421" height="260.0" fill="#0f766e" rx="4"/>
<text x="290.5" y="62.0" text-anchor="middle" class="small">7770</text>
<text x="290.5" y="348" text-anchor="middle" class="label">All donors</text>
<rect x="519" y="321.7014157014157" width="421" height="8.298584298584299" fill="#0f766e" rx="4"/>
<text x="729.5" y="313.7014157014157" text-anchor="middle" class="small">248</text>
<text x="729.5" y="348" text-anchor="middle" class="label">LC members</text>
</svg>