<svg xmlns="http://www.w3.org/2000/svg" width="980" height="420" viewBox="0 0 980 420">
<style>text { font-family: Arial, sans-serif; fill: #222; } .small { font-size: 12px; } .label { font-size: 12px; } .title { font-size: 20px; font-weight: bold; }</style>
<rect x="0" y="0" width="980" height="420" fill="#ffffff"/>
<text x="490.0" y="30" text-anchor="middle" class="title">Lapsed Donor Reactivation Priority Tiers</text>
<line x1="80" y1="330" x2="940" y2="330" stroke="#444" stroke-width="1"/>
<line x1="80" y1="70" x2="80" y2="330" stroke="#444" stroke-width="1"/>
<line x1="76" y1="330.0" x2="940" y2="330.0" stroke="#e9e9e9" stroke-width="1"/>
<text x="70" y="334.0" text-anchor="end" class="small">0</text>
<line x1="76" y1="265.0" x2="940" y2="265.0" stroke="#e9e9e9" stroke-width="1"/>
<text x="70" y="269.0" text-anchor="end" class="small">31</text>
<line x1="76" y1="200.0" x2="940" y2="200.0" stroke="#e9e9e9" stroke-width="1"/>
<text x="70" y="204.0" text-anchor="end" class="small">62</text>
<line x1="76" y1="135.0" x2="940" y2="135.0" stroke="#e9e9e9" stroke-width="1"/>
<text x="70" y="139.0" text-anchor="end" class="small">94</text>
<line x1="76" y1="70.0" x2="940" y2="70.0" stroke="#e9e9e9" stroke-width="1"/>
<text x="70" y="74.0" text-anchor="end" class="small">125</text>
<rect x="80" y="153.2" width="201" height="176.8" fill="#b91c1c" rx="4"/>
<text x="180.5" y="145.2" text-anchor="middle" class="small">85</text>
<text x="180.5" y="348" text-anchor="middle" class="label">Tier 1</text>
<rect x="299" y="70.0" width="201" height="260.0" fill="#b91c1c" rx="4"/>
<text x="399.5" y="62.0" text-anchor="middle" class="small">125</text>
<text x="399.5" y="348" text-anchor="middle" class="label">Tier 2</text>
<rect x="518" y="217.68" width="201" height="112.32" fill="#b91c1c" rx="4"/>
<text x="618.5" y="209.68" text-anchor="middle" class="small">54</text>
<text x="618.5" y="348" text-anchor="middle" class="label">Tier 3</text>
<rect x="737" y="144.88" width="201" height="185.12" fill="#b91c1c" rx="4"/>
<text x="837.5" y="136.88" text-anchor="middle" class="small">89</text>
<text x="837.5" y="348" text-anchor="middle" class="label">Tier 4</text>
</svg>