<svg xmlns="http://www.w3.org/2000/svg" width="980" height="322" viewBox="0 0 980 322">
<style>text { font-family: Arial, sans-serif; fill: #222; } .small { font-size: 12px; } .label { font-size: 14px; } .title { font-size: 20px; font-weight: bold; }</style>
<rect x="0" y="0" width="980" height="322" fill="#ffffff"/>
<text x="490.0" y="32" text-anchor="middle" class="title">Direct-Mail Opportunity in the Database</text>
<text x="238" y="72" text-anchor="end" class="label">All people</text>
<rect x="250" y="56" width="620" height="22" fill="#f1f5f9" rx="4"/>
<rect x="250" y="56" width="620.0" height="22" fill="#c2410c" rx="4"/>
<text x="880.0" y="72" text-anchor="start" class="small">79,830</text>
<text x="238" y="126" text-anchor="end" class="label">With complete address</text>
<rect x="250" y="110" width="620" height="22" fill="#f1f5f9" rx="4"/>
<rect x="250" y="110" width="423.8880120255543" height="22" fill="#c2410c" rx="4"/>
<text x="683.8880120255543" y="126" text-anchor="start" class="small">54,579</text>
<text x="238" y="180" text-anchor="end" class="label">With no email</text>
<rect x="250" y="164" width="620" height="22" fill="#f1f5f9" rx="4"/>
<rect x="250" y="164" width="150.0410873105349" height="22" fill="#c2410c" rx="4"/>
<text x="410.04108731053486" y="180" text-anchor="start" class="small">19,319</text>
<text x="238" y="234" text-anchor="end" class="label">Mailable address + no email</text>
<rect x="250" y="218" width="620" height="22" fill="#f1f5f9" rx="4"/>
<rect x="250" y="218" width="127.66578980333207" height="22" fill="#c2410c" rx="4"/>
<text x="387.6657898033321" y="234" text-anchor="start" class="small">16,438</text>
</svg>