<svg xmlns="http://www.w3.org/2000/svg" width="980" height="322" viewBox="0 0 980 322">
<style>text { font-family: Arial, sans-serif; fill: #222; } .small { font-size: 12px; } .label { font-size: 14px; } .title { font-size: 20px; font-weight: bold; }</style>
<rect x="0" y="0" width="980" height="322" fill="#ffffff"/>
<text x="490.0" y="32" text-anchor="middle" class="title">People Added Since 2026-01-01</text>
<text x="238" y="72" text-anchor="end" class="label">People added since Jan 1</text>
<rect x="250" y="56" width="620" height="22" fill="#f1f5f9" rx="4"/>
<rect x="250" y="56" width="620.0" height="22" fill="#0f766e" rx="4"/>
<text x="880.0" y="72" text-anchor="start" class="small">1,378</text>
<text x="238" y="126" text-anchor="end" class="label">With complete address</text>
<rect x="250" y="110" width="620" height="22" fill="#f1f5f9" rx="4"/>
<rect x="250" y="110" width="136.3280116110305" height="22" fill="#0f766e" rx="4"/>
<text x="396.3280116110305" y="126" text-anchor="start" class="small">303</text>
<text x="238" y="180" text-anchor="end" class="label">With no email</text>
<rect x="250" y="164" width="620" height="22" fill="#f1f5f9" rx="4"/>
<rect x="250" y="164" width="57.59071117561684" height="22" fill="#0f766e" rx="4"/>
<text x="317.59071117561683" y="180" text-anchor="start" class="small">128</text>
<text x="238" y="234" text-anchor="end" class="label">Postcard candidates</text>
<rect x="250" y="218" width="620" height="22" fill="#f1f5f9" rx="4"/>
<rect x="250" y="218" width="2.699564586357039" height="22" fill="#0f766e" rx="4"/>
<text x="262.69956458635704" y="234" text-anchor="start" class="small">6</text>
</svg>