<svg xmlns="http://www.w3.org/2000/svg" width="980" height="420" viewBox="0 0 980 420">
<style>text { font-family: Arial, sans-serif; fill: #222; } .small { font-size: 12px; } .label { font-size: 12px; } .title { font-size: 20px; font-weight: bold; }</style>
<rect x="0" y="0" width="980" height="420" fill="#ffffff"/>
<text x="490.0" y="30" text-anchor="middle" class="title">Tag Governance Signals</text>
<line x1="80" y1="330" x2="940" y2="330" stroke="#444" stroke-width="1"/>
<line x1="80" y1="70" x2="80" y2="330" stroke="#444" stroke-width="1"/>
<line x1="76" y1="330.0" x2="940" y2="330.0" stroke="#e9e9e9" stroke-width="1"/>
<text x="70" y="334.0" text-anchor="end" class="small">0</text>
<line x1="76" y1="265.0" x2="940" y2="265.0" stroke="#e9e9e9" stroke-width="1"/>
<text x="70" y="269.0" text-anchor="end" class="small">66</text>
<line x1="76" y1="200.0" x2="940" y2="200.0" stroke="#e9e9e9" stroke-width="1"/>
<text x="70" y="204.0" text-anchor="end" class="small">132</text>
<line x1="76" y1="135.0" x2="940" y2="135.0" stroke="#e9e9e9" stroke-width="1"/>
<text x="70" y="139.0" text-anchor="end" class="small">198</text>
<line x1="76" y1="70.0" x2="940" y2="70.0" stroke="#e9e9e9" stroke-width="1"/>
<text x="70" y="74.0" text-anchor="end" class="small">264</text>
<rect x="80" y="70.0" width="274" height="260.0" fill="#9333ea" rx="4"/>
<text x="217.0" y="62.0" text-anchor="middle" class="small">264</text>
<text x="217.0" y="348" text-anchor="middle" class="label">hierarchical</text>
<rect x="372" y="263.030303030303" width="274" height="66.96969696969697" fill="#9333ea" rx="4"/>
<text x="509.0" y="255.030303030303" text-anchor="middle" class="small">68</text>
<text x="509.0" y="348" text-anchor="middle" class="label">flat</text>
<rect x="664" y="141.8939393939394" width="274" height="188.1060606060606" fill="#9333ea" rx="4"/>
<text x="801.0" y="133.8939393939394" text-anchor="middle" class="small">191</text>
<text x="801.0" y="348" text-anchor="middle" class="label">overlap</text>
</svg>