<svg xmlns="http://www.w3.org/2000/svg" width="980" height="420" viewBox="0 0 980 420">
<style>text { font-family: Arial, sans-serif; fill: #222; } .small { font-size: 12px; } .label { font-size: 12px; } .title { font-size: 20px; font-weight: bold; }</style>
<rect x="0" y="0" width="980" height="420" fill="#ffffff"/>
<text x="490.0" y="30" text-anchor="middle" class="title">Activist Code Applications by Type</text>
<line x1="80" y1="330" x2="940" y2="330" stroke="#444" stroke-width="1"/>
<line x1="80" y1="70" x2="80" y2="330" stroke="#444" stroke-width="1"/>
<line x1="76" y1="330.0" x2="940" y2="330.0" stroke="#e9e9e9" stroke-width="1"/>
<text x="70" y="334.0" text-anchor="end" class="small">0</text>
<line x1="76" y1="265.0" x2="940" y2="265.0" stroke="#e9e9e9" stroke-width="1"/>
<text x="70" y="269.0" text-anchor="end" class="small">18286</text>
<line x1="76" y1="200.0" x2="940" y2="200.0" stroke="#e9e9e9" stroke-width="1"/>
<text x="70" y="204.0" text-anchor="end" class="small">36571</text>
<line x1="76" y1="135.0" x2="940" y2="135.0" stroke="#e9e9e9" stroke-width="1"/>
<text x="70" y="139.0" text-anchor="end" class="small">54856</text>
<line x1="76" y1="70.0" x2="940" y2="70.0" stroke="#e9e9e9" stroke-width="1"/>
<text x="70" y="74.0" text-anchor="end" class="small">73142</text>
<rect x="80" y="70.0" width="69" height="260.0" fill="#c2410c" rx="4"/>
<text x="114.5" y="62.0" text-anchor="middle" class="small">73142</text>
<text x="114.5" y="348" text-anchor="middle" class="label">Constituency</text>
<rect x="167" y="287.57075278225915" width="69" height="42.42924721774083" fill="#c2410c" rx="4"/>
<text x="201.5" y="279.57075278225915" text-anchor="middle" class="small">11936</text>
<text x="201.5" y="348" text-anchor="middle" class="label">Activism</text>
<rect x="254" y="296.39714527904624" width="69" height="33.60285472095376" fill="#c2410c" rx="4"/>
<text x="288.5" y="288.39714527904624" text-anchor="middle" class="small">9453</text>
<text x="288.5" y="348" text-anchor="middle" class="label">NGP 7</text>
<rect x="341" y="297.76216127532746" width="69" height="32.23783872467256" fill="#c2410c" rx="4"/>
<text x="375.5" y="289.76216127532746" text-anchor="middle" class="small">9069</text>
<text x="375.5" y="348" text-anchor="middle" class="label">Donor</text>
<rect x="428" y="313.4776188783462" width="69" height="16.52238112165377" fill="#c2410c" rx="4"/>
<text x="462.5" y="305.4776188783462" text-anchor="middle" class="small">4648</text>
<text x="462.5" y="348" text-anchor="middle" class="label">Volunteer</text>
<rect x="515" y="314.2063383555276" width="69" height="15.793661644472396" fill="#c2410c" rx="4"/>
<text x="549.5" y="306.2063383555276" text-anchor="middle" class="small">4443</text>
<text x="549.5" y="348" text-anchor="middle" class="label">Events</text>
<rect x="602" y="314.49782614640014" width="69" height="15.502173853599848" fill="#c2410c" rx="4"/>
<text x="636.5" y="306.49782614640014" text-anchor="middle" class="small">4361</text>
<text x="636.5" y="348" text-anchor="middle" class="label">Administrative</text>
<rect x="689" y="321.3371250444341" width="69" height="8.662874955565886" fill="#c2410c" rx="4"/>
<text x="723.5" y="313.3371250444341" text-anchor="middle" class="small">2437</text>
<text x="723.5" y="348" text-anchor="middle" class="label">Profession</text>
<rect x="776" y="321.56818243963795" width="69" height="8.431817560362035" fill="#c2410c" rx="4"/>
<text x="810.5" y="313.56818243963795" text-anchor="middle" class="small">2372</text>
<text x="810.5" y="348" text-anchor="middle" class="label">Activist</text>
<rect x="863" y="325.6383473243827" width="69" height="4.361652675617292" fill="#c2410c" rx="4"/>
<text x="897.5" y="317.6383473243827" text-anchor="middle" class="small">1227</text>
<text x="897.5" y="348" text-anchor="middle" class="label">Email Interests</text>
</svg>