<svg xmlns="http://www.w3.org/2000/svg" width="980" height="420" viewBox="0 0 980 420">
<style>text { font-family: Arial, sans-serif; fill: #222; } .small { font-size: 12px; } .label { font-size: 12px; } .title { font-size: 20px; font-weight: bold; }</style>
<rect x="0" y="0" width="980" height="420" fill="#ffffff"/>
<text x="490.0" y="30" text-anchor="middle" class="title">Used Codes by Usage Bucket</text>
<line x1="80" y1="330" x2="940" y2="330" stroke="#444" stroke-width="1"/>
<line x1="80" y1="70" x2="80" y2="330" stroke="#444" stroke-width="1"/>
<line x1="76" y1="330.0" x2="940" y2="330.0" stroke="#e9e9e9" stroke-width="1"/>
<text x="70" y="334.0" text-anchor="end" class="small">0</text>
<line x1="76" y1="265.0" x2="940" y2="265.0" stroke="#e9e9e9" stroke-width="1"/>
<text x="70" y="269.0" text-anchor="end" class="small">26</text>
<line x1="76" y1="200.0" x2="940" y2="200.0" stroke="#e9e9e9" stroke-width="1"/>
<text x="70" y="204.0" text-anchor="end" class="small">51</text>
<line x1="76" y1="135.0" x2="940" y2="135.0" stroke="#e9e9e9" stroke-width="1"/>
<text x="70" y="139.0" text-anchor="end" class="small">76</text>
<line x1="76" y1="70.0" x2="940" y2="70.0" stroke="#e9e9e9" stroke-width="1"/>
<text x="70" y="74.0" text-anchor="end" class="small">102</text>
<rect x="80" y="243.33333333333331" width="201" height="86.66666666666667" fill="#4f46e5" rx="4"/>
<text x="180.5" y="235.33333333333331" text-anchor="middle" class="small">34</text>
<text x="180.5" y="348" text-anchor="middle" class="label">&lt;=10</text>
<rect x="299" y="70.0" width="201" height="260.0" fill="#4f46e5" rx="4"/>
<text x="399.5" y="62.0" text-anchor="middle" class="small">102</text>
<text x="399.5" y="348" text-anchor="middle" class="label">11-100</text>
<rect x="518" y="110.7843137254902" width="201" height="219.2156862745098" fill="#4f46e5" rx="4"/>
<text x="618.5" y="102.7843137254902" text-anchor="middle" class="small">86</text>
<text x="618.5" y="348" text-anchor="middle" class="label">101-1000</text>
<rect x="737" y="250.98039215686276" width="201" height="79.01960784313725" fill="#4f46e5" rx="4"/>
<text x="837.5" y="242.98039215686276" text-anchor="middle" class="small">31</text>
<text x="837.5" y="348" text-anchor="middle" class="label">&gt;1000</text>
</svg>